<svg xmlns="http://www.w3.org/2000/svg" enable-background="new 0 0 512 512" viewBox="0 0 512 512"><path d="M499.046,294.155c-12.895-2.942-23.983-10.19-31.892-20.004l-28.897,13.302c7.311,10.867,16.93,20.146,28.244,26.905
			c7.492,4.472,11.694,12.468,10.973,20.87l-6.444,75.262c-0.716,8.397-6.221,15.562-14.361,18.699
			c-18.481,7.116-34.259,20.372-44.428,37.33c-4.14,6.916-11.3,11.023-18.989,11.023c-0.617,0-1.24-0.026-1.863-0.08
			l-289.846-24.818c-8.395-0.721-15.555-6.216-18.694-14.341c-7.129-18.432-20.395-34.173-37.356-44.316
			c-7.476-4.478-11.679-12.468-10.958-20.86l2.579-30.108c-2.542-1.588-4.697-3.803-6.039-6.594l-6.024-13.064
			c-1.759-3.977-1.914-8.229-0.508-12.13c0.239-0.597,0.498-1.17,0.783-1.717c-4.42-1.097-8.231-4.101-10.373-8.246
			c-0.112-0.004-0.221,0.016-0.333,0.007c-2.922-0.265-5.472,1.913-5.738,4.836L7.66,320.347c-0.106,1.381,0.319,2.816,1.222,3.878
			c0.903,1.062,2.231,1.754,3.613,1.86c1.913,0.16,3.666,1.062,4.888,2.55c1.275,1.435,1.859,3.293,1.7,5.26
			c-0.212,1.912-1.063,3.666-2.55,4.887c-1.488,1.222-3.347,1.807-5.26,1.647c-2.922-0.266-5.525,1.913-5.738,4.836l-1.222,14.238
			c-0.106,1.381,0.319,2.816,1.222,3.878c0.903,1.062,2.231,1.752,3.613,1.859c3.931,0.372,6.907,3.826,6.535,7.811
			c-0.159,1.912-1.063,3.666-2.497,4.887c-1.488,1.222-3.347,1.806-5.26,1.647c-2.922-0.213-5.526,1.912-5.738,4.834l-1.116,13.176
			c-0.691,7.81,4.463,14.929,11.901,16.575c24.811,5.685,43.087,27.362,44.416,52.811c0.425,7.597,6.641,13.813,14.398,14.504
			l344.06,29.487c0.478,0,0.903,0.053,1.381,0.053c7.172,0,13.601-4.942,15.248-11.954c5.632-24.812,27.308-43.088,52.81-44.416
			c7.651-0.372,13.92-6.535,14.61-14.344l1.116-13.176c0.212-2.922-1.913-5.472-4.835-5.738c-3.985-0.319-6.907-3.825-6.588-7.757
			c0.16-1.913,1.063-3.666,2.55-4.887c1.435-1.275,3.294-1.86,5.26-1.7c2.869,0.266,5.472-1.913,5.738-4.836l1.222-14.238
			c0.106-1.381-0.319-2.763-1.222-3.878c-0.903-1.062-2.231-1.752-3.613-1.859c-1.966-0.16-3.666-1.064-4.941-2.498
			c-1.222-1.486-1.807-3.346-1.647-5.258c0.159-1.966,1.063-3.72,2.55-4.942c1.435-1.222,3.347-1.806,5.26-1.647
			c2.869,0.266,5.472-1.912,5.738-4.834l1.222-14.238c0.106-1.381-0.319-2.816-1.222-3.878c-0.903-1.064-2.231-1.754-3.613-1.86
			c-3.772-0.319-6.588-3.506-6.588-7.225v-0.585c0.372-3.931,3.931-6.854,7.81-6.535c2.922,0.213,5.472-1.913,5.738-4.834
			l1.116-13.124C511.638,302.921,506.484,295.803,499.046,294.155z"/><path d="M461.053,323.48c-13.157-7.856-24.26-18.76-32.545-31.539L271.02,364.432l0.27,1.156l22.393,1.917
			c4.213,0.363,7.679,3.37,8.639,7.482c0.955,4.109-0.83,8.338-4.441,10.517l-19.254,11.627l5.116,21.908
			c0.96,4.117-0.83,8.345-4.441,10.525c-1.556,0.942-3.295,1.403-5.022,1.403c-2.278,0-4.54-0.802-6.356-2.368l-17.033-14.74
			l-19.233,11.609c-3.611,2.187-8.192,1.79-11.383-0.975c-3.196-2.768-4.234-7.24-2.584-11.129l8.753-20.699l-5.818-5.034
			l-34.678,15.962l2.107,9.034c0.83,3.536-0.706,7.181-3.819,9.061c-1.344,0.812-2.838,1.211-4.327,1.211
			c-1.966,0-3.912-0.693-5.474-2.044l-9.025-7.808l-1.839,0.846c-2.398,1.138-5.031,1.87-7.807,2.197l-4.568,2.758
			c-3.103,1.883-7.051,1.546-9.796-0.835c-1.704-1.476-2.597-3.527-2.768-5.663c-3.186-1.972-5.96-4.597-8.044-7.837
			c-8.436-13.199-23.441-21.384-39.177-21.384c-4.493,0-8.955,0.659-13.261,1.956c-2.345,0.724-4.856,1.103-7.393,1.103
			c-10.211,0-19.565-6.055-23.835-15.428l-1.281-2.784l-0.519,6.06c-0.368,4.309,1.863,8.46,5.832,10.831
			c18.984,11.357,33.833,28.974,41.808,49.606c0,0.003,0,0.003,0,0.003c1.665,4.306,5.375,7.212,9.692,7.583l289.846,24.818
			c4.348,0.4,8.457-1.86,10.833-5.819c11.383-18.982,29.039-33.82,49.72-41.782c4.317-1.663,7.222-5.378,7.596-9.692l6.444-75.262
			C467.259,330.004,465.022,325.851,461.053,323.48z M370.999,406.029l-12.338,7.45l3.279,14.034
			c0.825,3.546-0.711,7.186-3.824,9.064c-1.344,0.812-2.838,1.209-4.327,1.209c-1.961,0-3.907-0.69-5.469-2.042l-10.916-9.445
			l-12.322,7.437c-3.097,1.881-7.046,1.546-9.796-0.835c-2.75-2.379-3.647-6.231-2.231-9.583l5.609-13.264l-10.906-9.435
			c-2.75-2.381-3.647-6.231-2.236-9.58c1.416-3.352,4.815-5.398,8.421-5.085l14.367,1.232l5.603-13.272
			c1.401-3.344,4.716-5.38,8.405-5.087c3.627,0.306,6.615,2.892,7.445,6.434l3.274,14.042l14.351,1.23
			c3.621,0.311,6.61,2.898,7.435,6.436C375.648,400.511,374.112,404.15,370.999,406.029z M434.728,399.476
			c-0.233,2.768-2.558,4.859-5.287,4.859c-0.15,0-0.306-0.005-0.457-0.018c-2.926-0.252-5.095-2.825-4.841-5.749l5.1-59.567
			c0.244-2.921,2.89-5.118,5.743-4.841c2.926,0.252,5.095,2.825,4.841,5.749L434.728,399.476z"/><path d="M428.818,82.373c-1.8-3.909-5.775-6.4-10.377-6.501c-22.056-0.477-43.613-8.418-60.703-22.364
				c-2.241-1.831-4.913-2.778-7.559-2.778c-1.546,0-3.087,0.324-4.529,0.986L82.461,172.857c-3.907,1.798-6.397,5.767-6.501,10.356
				c-0.503,22.027-8.467,43.553-22.424,60.613c-2.911,3.551-3.601,8.185-1.806,12.091l31.472,68.372
				c1.8,3.907,5.769,6.395,10.361,6.498c22.035,0.49,43.566,8.439,60.626,22.38c3.549,2.905,8.182,3.598,12.094,1.798
				l263.189-121.14c3.902-1.798,6.397-5.764,6.501-10.353c0.514-22.04,8.504-43.582,22.491-60.654
				c2.916-3.557,3.606-8.198,1.811-12.11L428.818,82.373z M110.882,308.74c-0.721,0.332-1.473,0.488-2.215,0.488
				c-2.013,0-3.938-1.147-4.83-3.092l-24.894-54.086c-1.23-2.664-0.062-5.819,2.605-7.046c2.677-1.23,5.821-0.057,7.046,2.605
				l24.894,54.086C114.717,304.358,113.549,307.513,110.882,308.74z M137.748,202.604c-0.716,0.332-1.473,0.488-2.215,0.488
				c-2.013,0-3.938-1.147-4.83-3.092c-1.23-2.664-0.062-5.819,2.605-7.046l194.62-89.582c2.677-1.232,5.826-0.057,7.046,2.605
				c1.23,2.664,0.062,5.819-2.605,7.046L137.748,202.604z M227.106,297.113c-1.774,3.167-5.396,4.81-8.914,4.112l-14.086-2.804
				l-7.004,12.488c-1.494,2.677-4.291,4.273-7.269,4.273c-0.545,0-1.095-0.054-1.65-0.163c-3.559-0.708-6.242-3.611-6.662-7.22
				l-1.665-14.226l-14.076-2.802c-3.559-0.708-6.236-3.606-6.662-7.212c-0.425-3.608,1.505-7.051,4.81-8.569l13.028-5.998
				l-1.691-14.229c-0.42-3.611,1.51-7.051,4.804-8.569c3.284-1.52,7.16-0.752,9.624,1.914l9.738,10.535l13.018-5.99
				c3.284-1.52,7.155-0.75,9.624,1.917c2.459,2.664,2.926,6.581,1.157,9.749l-7.009,12.512l9.733,10.53
				C228.419,290.028,228.881,293.948,227.106,297.113z M313.295,257.149c-2.055,3.679-6.221,5.593-10.351,4.773l-21.983-4.379
				l-10.937,19.508c-1.738,3.105-4.981,4.957-8.441,4.957c-0.633,0-1.271-0.062-1.915-0.192c-4.135-0.825-7.243-4.195-7.731-8.382
				l-2.605-22.216l-21.973-4.371c-4.135-0.825-7.248-4.192-7.741-8.379s1.748-8.182,5.577-9.943l20.349-9.368l-2.63-22.216
				c-0.498-4.179,1.738-8.177,5.562-9.943c3.834-1.774,8.327-0.877,11.191,2.218l15.197,16.447l20.323-9.352
				c3.829-1.767,8.317-0.869,11.176,2.226c2.864,3.095,3.398,7.645,1.344,11.321l-10.947,19.526l15.197,16.444
				C314.815,248.921,315.355,253.471,313.295,257.149z M384.992,224.442c-1.774,3.165-5.375,4.81-8.919,4.107l-14.081-2.802
				l-6.999,12.488c-1.499,2.68-4.296,4.273-7.274,4.273c-0.545,0-1.095-0.054-1.645-0.163c-3.559-0.708-6.236-3.606-6.667-7.209
				l-1.665-14.239l-14.071-2.799c-3.564-0.711-6.242-3.611-6.667-7.217c-0.425-3.606,1.505-7.046,4.804-8.563l13.033-6
				l-1.686-14.226c-0.425-3.606,1.499-7.048,4.799-8.569c3.289-1.52,7.17-0.752,9.63,1.92l9.733,10.53l13.018-5.99
				c3.295-1.52,7.165-0.75,9.635,1.922c2.459,2.667,2.916,6.587,1.141,9.751l-7.004,12.499l9.733,10.532
				C386.305,217.355,386.767,221.275,384.992,224.442z M430.468,161.64c-0.716,0.332-1.473,0.488-2.215,0.488
				c-2.013,0-3.938-1.147-4.83-3.092l-24.899-54.086c-1.23-2.664-0.062-5.819,2.605-7.046c2.656-1.235,5.821-0.057,7.046,2.605
				l24.899,54.086C434.302,157.258,433.135,160.413,430.468,161.64z"/><path d="M509.566,157.881l-5.472-11.954c-1.222-2.656-4.409-3.826-7.066-2.605c-3.56,1.647-7.863,0.106-9.51-3.453
				c-1.647-3.612-0.053-7.863,3.507-9.51c1.328-0.584,2.284-1.647,2.762-2.976c0.531-1.328,0.478-2.815-0.159-4.091l-5.95-12.91
				c-1.222-2.656-4.357-3.825-7.013-2.603c-1.753,0.798-3.719,0.903-5.472,0.213c-1.806-0.638-3.188-1.966-4.038-3.719
				c-0.797-1.754-0.85-3.666-0.213-5.472c0.691-1.754,2.019-3.188,3.719-3.985c2.71-1.222,3.878-4.41,2.603-7.067l-5.95-12.91
				c-1.222-2.656-4.357-3.825-7.013-2.603c-0.956,0.425-1.966,0.638-2.975,0.638c-2.71,0-5.313-1.541-6.535-4.144
				c-0.797-1.754-0.85-3.719-0.213-5.472c0.691-1.807,1.966-3.188,3.719-4.038c1.275-0.585,2.284-1.647,2.763-2.976
				c0.478-1.328,0.425-2.763-0.16-4.038l-5.472-11.954c-3.241-7.067-11.21-10.732-18.489-8.501
				c-24.386,7.332-50.897-2.497-64.551-23.853c-4.144-6.376-12.538-8.714-19.551-5.474L40.388,146.245
				c-7.066,3.241-10.785,11.158-8.607,18.489c7.332,24.227-2.444,50.738-23.749,64.392c-6.428,4.091-8.872,12.539-5.578,19.657
				l5.472,11.901c0.584,1.275,1.7,2.284,2.975,2.763c1.328,0.479,2.816,0.425,4.091-0.16c3.56-1.647,7.81-0.053,9.457,3.507
				c1.647,3.559,0.106,7.863-3.507,9.509c-1.275,0.585-2.231,1.647-2.762,2.975c-0.478,1.328-0.425,2.763,0.159,4.038l5.95,12.963
				c1.275,2.656,4.41,3.826,7.066,2.55c3.613-1.646,7.863-0.052,9.51,3.507c1.594,3.612,0.053,7.863-3.56,9.51
				c-1.275,0.584-2.231,1.646-2.763,2.974c-0.478,1.328-0.425,2.763,0.16,4.091l5.95,12.91c1.275,2.656,4.41,3.826,7.066,2.605
				c1.753-0.798,3.719-0.904,5.472-0.213c1.807,0.637,3.188,1.965,4.038,3.719c0.797,1.754,0.85,3.666,0.212,5.472
				c-0.69,1.754-2.019,3.188-3.719,3.985c-2.71,1.222-3.879,4.41-2.604,7.066l5.472,11.899c3.241,7.12,11.263,10.787,18.489,8.554
				c24.333-7.331,50.791,2.497,64.445,23.855c2.869,4.463,7.863,6.907,12.963,6.907c2.231,0,4.516-0.425,6.641-1.435
				l312.449-143.819c7.013-3.24,10.732-11.156,8.554-18.489c-7.331-24.227,2.444-50.737,23.855-64.444
				C510.415,173.447,512.806,164.999,509.566,157.881z M466.683,169.552c-12.493,15.249-19.627,34.484-20.084,54.169
				c-0.202,8.677-5.064,16.247-12.685,19.755l-263.189,121.14c-2.874,1.326-5.93,1.974-8.986,1.974
				c-5.048,0-10.086-1.769-14.273-5.194c-15.233-12.449-34.461-19.547-54.14-19.988c-8.685-0.189-16.265-5.048-19.773-12.678
				L42.08,260.358c-3.513-7.629-2.272-16.543,3.232-23.264c12.462-15.23,19.576-34.453,20.022-54.122
				c0.197-8.683,5.059-16.258,12.685-19.768l263.189-121.14c7.627-3.51,16.525-2.275,23.249,3.209
				c15.259,12.455,34.513,19.55,54.218,19.972c8.696,0.192,16.281,5.053,19.793,12.683l31.457,68.341
				C473.438,153.907,472.193,162.826,466.683,169.552z"/></svg>